<?xml version="1.0" standalone="no"?>
<!DOCTYPE svg PUBLIC "-//W3C//DTD SVG 20010904//EN"
 "http://www.w3.org/TR/2001/REC-SVG-20010904/DTD/svg10.dtd">
<svg version="1.0" xmlns="http://www.w3.org/2000/svg"
 width="300.000000pt" height="300.000000pt" viewBox="0 0 300.000000 300.000000"
 preserveAspectRatio="xMidYMid meet">
<metadata>
Created by potrace 1.11, written by Peter Selinger 2001-2013
</metadata>
<g transform="translate(0.000000,300.000000) scale(0.100000,-0.100000)"
fill="#000000" stroke="none">
<path d="M1788 2745 c-2 -1 -34 -5 -73 -9 -234 -22 -435 -80 -640 -183 -89
-46 -218 -139 -276 -199 -106 -112 -133 -175 -131 -305 2 -179 85 -330 252
-459 25 -19 47 -38 48 -42 2 -5 10 -8 17 -8 8 0 20 -6 27 -12 20 -19 71 -47
128 -71 154 -65 420 -152 602 -198 52 -13 180 -72 233 -109 56 -38 77 -69 77
-113 0 -155 -344 -381 -730 -479 -71 -18 -115 -22 -247 -23 -170 0 -190 2
-330 39 -61 16 -96 21 -107 15 -39 -21 -77 -144 -59 -192 15 -39 115 -94 204
-112 10 -3 27 -7 37 -10 10 -3 29 -8 42 -11 26 -6 189 -6 228 -1 48 7 135 21
140 22 38 9 70 16 95 20 113 18 324 90 449 152 155 78 260 151 384 268 229
216 231 458 4 627 -104 77 -353 184 -501 214 -34 7 -389 128 -439 150 -23 10
-42 22 -42 26 0 5 -5 8 -11 8 -17 0 -93 62 -142 118 -48 54 -87 126 -91 171
-19 174 338 398 694 436 25 3 97 8 161 11 99 5 129 3 205 -16 161 -39 202 -82
219 -230 4 -30 9 -57 11 -59 7 -8 100 21 118 37 59 54 95 224 62 293 -45 93
-155 171 -276 194 -8 2 -33 8 -55 13 -22 6 -80 14 -130 18 -49 3 -104 8 -122
9 -18 2 -33 2 -35 0z"/>
</g>
</svg>
